<mxfile host="www.draw.io" modified="2020-02-25T18:43:12.078Z" agent="Mozilla/5.0 (Windows NT 10.0; Win64; x64) AppleWebKit/537.36 (KHTML, like Gecko) Chrome/79.0.3945.130 Safari/537.36" etag="rLrDagqWqg25Bjbn1Qc2" version="12.7.6" type="github">
  <diagram name="Page-1" id="2cc2dc42-3aac-f2a9-1cec-7a8b7cbee084">
    <mxGraphModel dx="3882" dy="1228" grid="1" gridSize="10" guides="1" tooltips="1" connect="1" arrows="1" fold="1" page="1" pageScale="1" pageWidth="1100" pageHeight="850" background="#ffffff" math="0" shadow="0">
      <root>
        <mxCell id="0" />
        <mxCell id="1" parent="0" />
        <mxCell id="7026571954dc6520-1" value="" style="strokeWidth=1;shadow=0;dashed=0;align=center;html=1;shape=mxgraph.mockup.containers.browserWindow;rSize=0;strokeColor=#666666;mainText=,;recursiveResize=0;rounded=0;labelBackgroundColor=none;fontFamily=Verdana;fontSize=12" parent="1" vertex="1">
          <mxGeometry x="-280" y="20" width="1300" height="950" as="geometry" />
        </mxCell>
        <mxCell id="7026571954dc6520-2" value="myOwnAdventure" style="strokeWidth=1;shadow=0;dashed=0;align=center;html=1;shape=mxgraph.mockup.containers.anchor;fontSize=17;fontColor=#666666;align=left;" parent="7026571954dc6520-1" vertex="1">
          <mxGeometry x="60" y="12" width="110" height="26" as="geometry" />
        </mxCell>
        <mxCell id="7026571954dc6520-3" value="&lt;a href=&quot;https://omonimus1.github.io/myOwnAdventure.github.io/&quot;&gt;https://omonimus1.github.io/myOwnAdventure.github.io/&lt;/a&gt;" style="strokeWidth=1;shadow=0;dashed=0;align=center;html=1;shape=mxgraph.mockup.containers.anchor;rSize=0;fontSize=17;fontColor=#666666;align=left;" parent="7026571954dc6520-1" vertex="1">
          <mxGeometry x="130" y="60" width="250" height="26" as="geometry" />
        </mxCell>
        <mxCell id="7026571954dc6520-4" value="My Own adventure&amp;nbsp; &amp;nbsp; &amp;nbsp; &amp;nbsp; &amp;nbsp; &amp;nbsp; &amp;nbsp; &amp;nbsp; &amp;nbsp; &amp;nbsp; &amp;nbsp; &amp;nbsp; &amp;nbsp; &amp;nbsp; &amp;nbsp; &amp;nbsp; &amp;nbsp; &amp;nbsp; &amp;nbsp; &amp;nbsp; &amp;nbsp; &amp;nbsp; &amp;nbsp; &amp;nbsp; &amp;nbsp; &amp;nbsp; &amp;nbsp;" style="text;html=1;points=[];align=left;verticalAlign=top;spacingTop=-4;fontSize=30;fontFamily=Verdana" parent="7026571954dc6520-1" vertex="1">
          <mxGeometry x="30" y="120" width="240" height="50" as="geometry" />
        </mxCell>
        <mxCell id="7026571954dc6520-14" value="Filter Story by Category" style="strokeWidth=1;shadow=0;dashed=0;align=center;html=1;shape=mxgraph.mockup.forms.searchBox;strokeColor=#999999;mainText=;strokeColor2=#008cff;fontColor=#666666;fontSize=17;align=left;spacingLeft=3;rounded=0;labelBackgroundColor=none;" parent="7026571954dc6520-1" vertex="1">
          <mxGeometry x="410" y="180" width="220" height="30" as="geometry" />
        </mxCell>
        <mxCell id="7026571954dc6520-15" value="" style="verticalLabelPosition=bottom;shadow=0;dashed=0;align=center;html=1;verticalAlign=top;strokeWidth=1;shape=mxgraph.mockup.markup.line;strokeColor=#999999;rounded=0;labelBackgroundColor=none;fillColor=#ffffff;fontFamily=Verdana;fontSize=12;fontColor=#000000;" parent="7026571954dc6520-1" vertex="1">
          <mxGeometry y="260" width="1290" height="20" as="geometry" />
        </mxCell>
        <mxCell id="7026571954dc6520-20" value="Some default text to fill some space, and&amp;nbsp;&lt;span&gt;something more so there is more text&lt;/span&gt;" style="text;html=1;points=[];align=left;verticalAlign=top;spacingTop=-4;fontSize=12;fontFamily=Verdana;whiteSpace=wrap;" parent="7026571954dc6520-1" vertex="1">
          <mxGeometry x="760" y="859" width="240" height="40" as="geometry" />
        </mxCell>
        <mxCell id="7026571954dc6520-21" value="" style="verticalLabelPosition=bottom;shadow=0;dashed=0;align=center;html=1;verticalAlign=top;strokeWidth=1;shape=mxgraph.mockup.markup.line;strokeColor=#999999;rounded=0;labelBackgroundColor=none;fillColor=#ffffff;fontFamily=Verdana;fontSize=12;fontColor=#000000;" parent="7026571954dc6520-1" vertex="1">
          <mxGeometry y="790" width="1280" height="20" as="geometry" />
        </mxCell>
        <mxCell id="7026571954dc6520-22" value="" style="verticalLabelPosition=bottom;shadow=0;dashed=0;align=center;html=1;verticalAlign=top;strokeWidth=1;shape=mxgraph.mockup.graphics.simpleIcon;strokeColor=#999999;fillColor=#ffffff;rounded=0;labelBackgroundColor=none;fontFamily=Verdana;fontSize=12;fontColor=#000000;" parent="7026571954dc6520-1" vertex="1">
          <mxGeometry x="220" y="880" width="50" height="40" as="geometry" />
        </mxCell>
        <mxCell id="7026571954dc6520-31" value="Connect&amp;nbsp;" style="text;html=1;points=[];align=left;verticalAlign=top;spacingTop=-4;fontSize=15;fontFamily=Verdana" parent="7026571954dc6520-1" vertex="1">
          <mxGeometry x="200" y="810" width="70" height="30" as="geometry" />
        </mxCell>
        <mxCell id="7026571954dc6520-32" value="Developer And Copyright" style="text;html=1;points=[];align=left;verticalAlign=top;spacingTop=-4;fontSize=15;fontFamily=Verdana" parent="7026571954dc6520-1" vertex="1">
          <mxGeometry x="770" y="820" width="170" height="30" as="geometry" />
        </mxCell>
        <mxCell id="wIods1u7_9_9RJ0zmhsb-2" value="" style="verticalLabelPosition=bottom;shadow=0;dashed=0;align=center;html=1;verticalAlign=top;strokeWidth=1;shape=mxgraph.mockup.graphics.simpleIcon;strokeColor=#999999;fillColor=#ffffff;rounded=0;labelBackgroundColor=none;fontFamily=Verdana;fontSize=12;fontColor=#000000;" parent="7026571954dc6520-1" vertex="1">
          <mxGeometry x="300" y="880" width="50" height="40" as="geometry" />
        </mxCell>
        <mxCell id="wIods1u7_9_9RJ0zmhsb-3" value="" style="verticalLabelPosition=bottom;shadow=0;dashed=0;align=center;html=1;verticalAlign=top;strokeWidth=1;shape=mxgraph.mockup.graphics.simpleIcon;strokeColor=#999999;fillColor=#ffffff;rounded=0;labelBackgroundColor=none;fontFamily=Verdana;fontSize=12;fontColor=#000000;" parent="7026571954dc6520-1" vertex="1">
          <mxGeometry x="140" y="880" width="50" height="40" as="geometry" />
        </mxCell>
        <mxCell id="wIods1u7_9_9RJ0zmhsb-7" value="&lt;span style=&quot;font-family: &amp;#34;verdana&amp;#34; ; font-size: 30px ; text-align: left ; white-space: nowrap&quot;&gt;&amp;nbsp;About Me Source&amp;nbsp; Contact Me&lt;/span&gt;" style="text;html=1;strokeColor=none;fillColor=none;align=center;verticalAlign=middle;whiteSpace=wrap;rounded=0;" parent="7026571954dc6520-1" vertex="1">
          <mxGeometry x="870" y="120" width="380" height="40" as="geometry" />
        </mxCell>
        <mxCell id="wIods1u7_9_9RJ0zmhsb-8" value="" style="rounded=0;whiteSpace=wrap;html=1;" parent="7026571954dc6520-1" vertex="1">
          <mxGeometry x="710" y="335" width="560" height="195" as="geometry" />
        </mxCell>
        <mxCell id="wIods1u7_9_9RJ0zmhsb-9" value="&lt;font style=&quot;font-size: 18px&quot;&gt;Title of the story&lt;/font&gt;" style="text;html=1;strokeColor=none;fillColor=none;align=center;verticalAlign=middle;whiteSpace=wrap;rounded=0;" parent="7026571954dc6520-1" vertex="1">
          <mxGeometry x="730" y="345" width="160" height="25" as="geometry" />
        </mxCell>
        <mxCell id="wIods1u7_9_9RJ0zmhsb-10" value="Description: lorem ipsumlorem ipsumlorem ipsumlorem ipsumlorem ipsumlorem ipsum lorem ipsumlorem ipsumlorem ipsumlorem ipsumlorem ipsumlorem ipsumlorem ipsumlorem ipsum" style="text;html=1;strokeColor=none;fillColor=none;align=center;verticalAlign=middle;whiteSpace=wrap;rounded=0;" parent="7026571954dc6520-1" vertex="1">
          <mxGeometry x="725" y="380" width="530" height="70" as="geometry" />
        </mxCell>
        <mxCell id="wIods1u7_9_9RJ0zmhsb-11" value="&lt;b&gt;&lt;font style=&quot;font-size: 14px&quot;&gt;Category&lt;/font&gt;&lt;/b&gt;" style="text;html=1;strokeColor=none;fillColor=none;align=center;verticalAlign=middle;whiteSpace=wrap;rounded=0;" parent="7026571954dc6520-1" vertex="1">
          <mxGeometry x="747" y="440" width="73" height="40" as="geometry" />
        </mxCell>
        <mxCell id="wIods1u7_9_9RJ0zmhsb-12" value="Stars rating" style="text;html=1;strokeColor=none;fillColor=none;align=center;verticalAlign=middle;whiteSpace=wrap;rounded=0;" parent="7026571954dc6520-1" vertex="1">
          <mxGeometry x="747" y="480" width="73" height="40" as="geometry" />
        </mxCell>
        <mxCell id="wIods1u7_9_9RJ0zmhsb-13" value="" style="rounded=0;whiteSpace=wrap;html=1;" parent="7026571954dc6520-1" vertex="1">
          <mxGeometry x="40" y="328" width="560" height="195" as="geometry" />
        </mxCell>
        <mxCell id="wIods1u7_9_9RJ0zmhsb-14" value="" style="rounded=0;whiteSpace=wrap;html=1;" parent="7026571954dc6520-1" vertex="1">
          <mxGeometry x="40" y="570" width="560" height="195" as="geometry" />
        </mxCell>
        <mxCell id="wIods1u7_9_9RJ0zmhsb-15" value="" style="rounded=0;whiteSpace=wrap;html=1;" parent="7026571954dc6520-1" vertex="1">
          <mxGeometry x="710" y="570" width="560" height="195" as="geometry" />
        </mxCell>
        <mxCell id="wIods1u7_9_9RJ0zmhsb-16" value="&lt;font style=&quot;font-size: 18px&quot;&gt;Title of the story&lt;/font&gt;" style="text;html=1;strokeColor=none;fillColor=none;align=center;verticalAlign=middle;whiteSpace=wrap;rounded=0;" parent="7026571954dc6520-1" vertex="1">
          <mxGeometry x="50" y="345" width="160" height="25" as="geometry" />
        </mxCell>
        <mxCell id="wIods1u7_9_9RJ0zmhsb-17" value="&lt;font style=&quot;font-size: 18px&quot;&gt;Title of the story&lt;/font&gt;" style="text;html=1;strokeColor=none;fillColor=none;align=center;verticalAlign=middle;whiteSpace=wrap;rounded=0;" parent="7026571954dc6520-1" vertex="1">
          <mxGeometry x="730" y="580" width="160" height="25" as="geometry" />
        </mxCell>
        <mxCell id="wIods1u7_9_9RJ0zmhsb-18" value="&lt;font style=&quot;font-size: 18px&quot;&gt;Title of the story&lt;/font&gt;" style="text;html=1;strokeColor=none;fillColor=none;align=center;verticalAlign=middle;whiteSpace=wrap;rounded=0;" parent="7026571954dc6520-1" vertex="1">
          <mxGeometry x="50" y="590" width="160" height="25" as="geometry" />
        </mxCell>
        <mxCell id="wIods1u7_9_9RJ0zmhsb-19" value="Description: lorem ipsumlorem ipsumlorem ipsumlorem ipsumlorem ipsumlorem ipsum lorem ipsumlorem ipsumlorem ipsumlorem ipsumlorem ipsumlorem ipsumlorem ipsumlorem ipsum" style="text;html=1;strokeColor=none;fillColor=none;align=center;verticalAlign=middle;whiteSpace=wrap;rounded=0;" parent="7026571954dc6520-1" vertex="1">
          <mxGeometry x="50" y="380" width="530" height="70" as="geometry" />
        </mxCell>
        <mxCell id="wIods1u7_9_9RJ0zmhsb-20" value="Description: lorem ipsumlorem ipsumlorem ipsumlorem ipsumlorem ipsumlorem ipsum lorem ipsumlorem ipsumlorem ipsumlorem ipsumlorem ipsumlorem ipsumlorem ipsumlorem ipsum" style="text;html=1;strokeColor=none;fillColor=none;align=center;verticalAlign=middle;whiteSpace=wrap;rounded=0;" parent="7026571954dc6520-1" vertex="1">
          <mxGeometry x="720" y="615" width="530" height="70" as="geometry" />
        </mxCell>
        <mxCell id="wIods1u7_9_9RJ0zmhsb-21" value="Description: lorem ipsumlorem ipsumlorem ipsumlorem ipsumlorem ipsumlorem ipsum lorem ipsumlorem ipsumlorem ipsumlorem ipsumlorem ipsumlorem ipsumlorem ipsumlorem ipsum" style="text;html=1;strokeColor=none;fillColor=none;align=center;verticalAlign=middle;whiteSpace=wrap;rounded=0;" parent="7026571954dc6520-1" vertex="1">
          <mxGeometry x="55" y="620" width="530" height="70" as="geometry" />
        </mxCell>
        <mxCell id="wIods1u7_9_9RJ0zmhsb-22" value="&lt;b&gt;&lt;font style=&quot;font-size: 14px&quot;&gt;Category&lt;/font&gt;&lt;/b&gt;" style="text;html=1;strokeColor=none;fillColor=none;align=center;verticalAlign=middle;whiteSpace=wrap;rounded=0;" parent="7026571954dc6520-1" vertex="1">
          <mxGeometry x="57" y="440" width="73" height="40" as="geometry" />
        </mxCell>
        <mxCell id="wIods1u7_9_9RJ0zmhsb-23" value="&lt;b&gt;&lt;font style=&quot;font-size: 14px&quot;&gt;Category&lt;/font&gt;&lt;/b&gt;" style="text;html=1;strokeColor=none;fillColor=none;align=center;verticalAlign=middle;whiteSpace=wrap;rounded=0;" parent="7026571954dc6520-1" vertex="1">
          <mxGeometry x="737" y="670" width="73" height="40" as="geometry" />
        </mxCell>
        <mxCell id="wIods1u7_9_9RJ0zmhsb-24" value="&lt;b&gt;&lt;font style=&quot;font-size: 14px&quot;&gt;Category&lt;/font&gt;&lt;/b&gt;" style="text;html=1;strokeColor=none;fillColor=none;align=center;verticalAlign=middle;whiteSpace=wrap;rounded=0;" parent="7026571954dc6520-1" vertex="1">
          <mxGeometry x="57" y="680" width="73" height="40" as="geometry" />
        </mxCell>
        <mxCell id="wIods1u7_9_9RJ0zmhsb-25" value="Stars rating" style="text;html=1;strokeColor=none;fillColor=none;align=center;verticalAlign=middle;whiteSpace=wrap;rounded=0;" parent="7026571954dc6520-1" vertex="1">
          <mxGeometry x="60" y="480" width="73" height="40" as="geometry" />
        </mxCell>
        <mxCell id="wIods1u7_9_9RJ0zmhsb-26" value="Stars rating" style="text;html=1;strokeColor=none;fillColor=none;align=center;verticalAlign=middle;whiteSpace=wrap;rounded=0;" parent="7026571954dc6520-1" vertex="1">
          <mxGeometry x="737" y="700" width="73" height="40" as="geometry" />
        </mxCell>
        <mxCell id="wIods1u7_9_9RJ0zmhsb-27" value="Stars rating" style="text;html=1;strokeColor=none;fillColor=none;align=center;verticalAlign=middle;whiteSpace=wrap;rounded=0;" parent="7026571954dc6520-1" vertex="1">
          <mxGeometry x="60" y="710" width="73" height="40" as="geometry" />
        </mxCell>
        <mxCell id="wIods1u7_9_9RJ0zmhsb-28" value="Icons" style="text;html=1;strokeColor=none;fillColor=none;align=center;verticalAlign=middle;whiteSpace=wrap;rounded=0;" parent="7026571954dc6520-1" vertex="1">
          <mxGeometry x="305" y="890" width="40" height="20" as="geometry" />
        </mxCell>
        <mxCell id="wIods1u7_9_9RJ0zmhsb-30" value="Icons" style="text;html=1;strokeColor=none;fillColor=none;align=center;verticalAlign=middle;whiteSpace=wrap;rounded=0;" parent="7026571954dc6520-1" vertex="1">
          <mxGeometry x="225" y="890" width="40" height="20" as="geometry" />
        </mxCell>
        <mxCell id="wIods1u7_9_9RJ0zmhsb-32" value="Icons" style="text;html=1;strokeColor=none;fillColor=none;align=center;verticalAlign=middle;whiteSpace=wrap;rounded=0;" parent="7026571954dc6520-1" vertex="1">
          <mxGeometry x="145" y="890" width="40" height="20" as="geometry" />
        </mxCell>
      </root>
    </mxGraphModel>
  </diagram>
</mxfile>
